<svg version="1.1" id="Layer_1" xmlns="http://www.w3.org/2000/svg" xmlns:xlink="http://www.w3.org/1999/xlink" x="0px" y="0px"
	 width="160px" height="45px" viewBox="0 99.5 160 45" enable-background="new 0 99.5 160 45" xml:space="preserve">
<title>Boardwalk Corporate</title>
<path fill="#FFFFFF" d="M2.637,138.466l-0.115,2.852H0v-21.987h2.901v8.658c1.473-1.868,3.784-2.955,6.227-2.929
	c4.547,0,7.872,3.736,7.872,8.349c0,4.611-3.325,8.349-7.872,8.349C6.523,141.78,4.082,140.543,2.637,138.466z M14.104,133.408
	c0-3.81-2.558-6.113-5.688-6.113s-5.704,2.304-5.704,6.113c0,3.809,2.557,6.117,5.692,6.117c3.137,0,5.688-2.309,5.688-6.117H14.104
	L14.104,133.408z"/>
<path fill="#FFFFFF" d="M19.631,133.408c-0.056-4.639,3.82-8.442,8.658-8.496c0.125-0.002,0.252-0.001,0.377,0.004
	c4.894-0.118,8.962,3.588,9.087,8.278c0.125,4.691-3.742,8.591-8.636,8.711c-0.15,0.005-0.3,0.005-0.451,0
	c-4.825,0.156-8.87-3.469-9.031-8.096C19.63,133.676,19.629,133.541,19.631,133.408z M34.721,133.408
	c0-3.441-2.333-6.262-6.072-6.262s-6.112,2.82-6.112,6.262c0,3.44,2.368,6.266,6.129,6.266S34.721,136.877,34.721,133.408z"/>
<path fill="#FFFFFF" d="M40.259,133.408c0-4.612,3.314-8.349,7.867-8.349c2.607-0.023,5.05,1.216,6.496,3.297l0.114-2.858h2.518
	v15.819h-2.518l-0.114-2.852c-1.446,2.079-3.889,3.318-6.496,3.296C43.573,141.757,40.259,138.026,40.259,133.408z M54.542,133.408
	c0-3.81-2.557-6.113-5.688-6.113c-3.131,0-5.694,2.304-5.694,6.113c0,3.809,2.558,6.117,5.694,6.117
	C51.99,139.525,54.542,137.217,54.542,133.408L54.542,133.408z"/>
<path fill="#FFFFFF" d="M61.227,125.498h2.522l0.188,3.039c1.349-2.162,3.787-3.484,6.416-3.478v3.022
	c-3.13-0.549-6.226,1.171-6.226,3.848v9.388h-2.901V125.498z"/>
<path fill="#FFFFFF" d="M72.303,133.408c0-4.612,3.326-8.349,7.872-8.349c2.442-0.026,4.754,1.061,6.226,2.929v-8.641h2.902v21.985
	H86.78l-0.115-2.853c-1.443,2.081-3.885,3.321-6.49,3.299C75.628,141.757,72.303,138.026,72.303,133.408z M86.591,133.408
	c0-3.81-2.563-6.113-5.692-6.113c-3.131,0-5.688,2.304-5.688,6.113c0,3.809,2.557,6.117,5.688,6.117c3.13,0,5.676-2.309,5.676-6.117
	H86.591z"/>
<path fill="#FFFFFF" d="M91.211,125.498h2.866l4.695,11.928l4.697-11.899h1.721l4.736,11.899l4.661-11.899h2.711l-6.489,15.83
	h-1.877l-4.661-11.46l-4.734,11.46h-1.83L91.211,125.498z"/>
<path fill="#FFFFFF" d="M119.018,133.408c0-4.612,3.32-8.349,7.867-8.349c2.607-0.023,5.051,1.216,6.494,3.297l0.115-2.858h2.519
	v15.819h-2.519l-0.115-2.852c-1.443,2.079-3.887,3.318-6.494,3.296C122.338,141.757,119.018,138.026,119.018,133.408z
	 M133.3,133.408c0-3.81-2.558-6.113-5.687-6.113c-3.131,0-5.693,2.304-5.693,6.113c0,3.809,2.563,6.117,5.693,6.117
	C130.742,139.525,133.3,137.217,133.3,133.408z"/>
<path fill="#FFFFFF" d="M139.223,119.348h2.9v21.987h-2.9V119.348z"/>
<path fill="#FFFFFF" d="M145.335,119.348h2.901v12.89l7.871-6.739h3.59l-8.406,7.068l8.709,8.751h-3.778l-7.985-8.201v8.201h-2.901
	V119.348z"/>
<path fill="#FFFFFF" d="M81.488,118.693L44.863,99.555c-0.129-0.073-0.289-0.073-0.418,0L7.82,118.693
	c-0.574,0.292-0.401,1.359,0.207,1.359h73.255C81.854,120.052,82.05,118.985,81.488,118.693 M76.213,118.452H37.341l6.806-3.534
	c0.394-0.272,0.55-0.761,0.384-1.198c-0.064-0.35-0.412-0.583-0.776-0.522c-0.052,0.009-0.104,0.024-0.153,0.044l-10.033,5.206h-4.3
	l14.906-7.695c0.39-0.267,0.551-0.748,0.396-1.182l0,0c-0.144-0.462-0.573-0.687-0.917-0.5l-18.158,9.382h-5.091l23.691-12.093
	c0.396-0.274,0.576-0.754,0.453-1.208c-0.115-0.478-0.505-0.715-0.872-0.549l-27.09,13.851h-3.354c-0.269,0-0.343-0.479-0.091-0.61
	l31.534-16.49l31.643,16.534c0.224,0.121,0.16,0.551-0.081,0.551"/>
</svg>
