<?xml version="1.0" encoding="utf-8"?>
<!-- Generator: Adobe Illustrator 16.0.0, SVG Export Plug-In . SVG Version: 6.00 Build 0)  -->
<!DOCTYPE svg PUBLIC "-//W3C//DTD SVG 1.1//EN" "http://www.w3.org/Graphics/SVG/1.1/DTD/svg11.dtd">
<svg version="1.1" id="Layer_1" xmlns="http://www.w3.org/2000/svg" xmlns:xlink="http://www.w3.org/1999/xlink" x="0px" y="0px"
	 width="200px" height="200px" viewBox="0 0 200 200" enable-background="new 0 0 200 200" xml:space="preserve">
<rect fill="#FFFFFF" width="200" height="200"/>
<title>Boardwalk Corporate</title>
<path fill="#005EB8" d="M21.637,112.466l-0.115,2.853H19V93.332h2.901v8.658c1.473-1.868,3.784-2.955,6.227-2.93
	c4.547,0,7.872,3.735,7.872,8.35c0,4.609-3.325,8.349-7.872,8.349C25.523,115.779,23.082,114.543,21.637,112.466z M33.104,107.408
	c0-3.811-2.558-6.113-5.688-6.113s-5.704,2.305-5.704,6.113c0,3.808,2.557,6.117,5.692,6.117c3.137,0,5.688-2.311,5.688-6.117
	H33.104L33.104,107.408z"/>
<path fill="#005EB8" d="M38.631,107.408c-0.056-4.639,3.82-8.442,8.658-8.496c0.125-0.002,0.252-0.001,0.377,0.004
	c4.894-0.118,8.962,3.588,9.087,8.277c0.125,4.69-3.742,8.592-8.636,8.711c-0.15,0.006-0.3,0.006-0.451,0
	c-4.825,0.156-8.87-3.469-9.031-8.096C38.63,107.676,38.629,107.541,38.631,107.408z M53.721,107.408
	c0-3.441-2.333-6.262-6.072-6.262c-3.739,0-6.112,2.818-6.112,6.262c0,3.439,2.368,6.266,6.129,6.266
	C51.427,113.674,53.721,110.877,53.721,107.408z"/>
<path fill="#005EB8" d="M59.259,107.408c0-4.612,3.314-8.35,7.867-8.35c2.607-0.022,5.05,1.217,6.496,3.297l0.114-2.857h2.518
	v15.818h-2.518l-0.114-2.853c-1.446,2.079-3.889,3.318-6.496,3.296C62.573,115.757,59.259,112.025,59.259,107.408z M73.542,107.408
	c0-3.811-2.557-6.113-5.688-6.113s-5.694,2.305-5.694,6.113c0,3.808,2.558,6.117,5.694,6.117S73.542,111.217,73.542,107.408
	L73.542,107.408z"/>
<path fill="#005EB8" d="M80.227,99.498h2.522l0.188,3.039c1.349-2.162,3.787-3.484,6.416-3.479v3.021
	c-3.13-0.549-6.226,1.171-6.226,3.85v9.387h-2.901L80.227,99.498L80.227,99.498z"/>
<path fill="#005EB8" d="M91.303,107.408c0-4.612,3.326-8.35,7.872-8.35c2.442-0.025,4.755,1.062,6.226,2.93v-8.641h2.902v21.983
	h-2.523l-0.113-2.854c-1.441,2.082-3.887,3.321-6.49,3.299C94.628,115.757,91.303,112.025,91.303,107.408z M105.591,107.408
	c0-3.811-2.563-6.113-5.692-6.113c-3.129,0-5.688,2.305-5.688,6.113c0,3.808,2.557,6.117,5.688,6.117
	c3.131,0,5.678-2.311,5.678-6.117H105.591z"/>
<path fill="#005EB8" d="M110.211,99.498h2.866l4.694,11.928l4.696-11.898h1.722l4.735,11.898l4.661-11.898h2.711l-6.488,15.83
	h-1.877l-4.66-11.461l-4.734,11.461h-1.83L110.211,99.498z"/>
<path fill="#005EB8" d="M138.018,107.408c0-4.612,3.32-8.35,7.867-8.35c2.607-0.022,5.051,1.217,6.494,3.297l0.115-2.857h2.52
	v15.818h-2.52l-0.115-2.853c-1.443,2.079-3.887,3.318-6.494,3.296C141.338,115.757,138.018,112.025,138.018,107.408z M152.3,107.408
	c0-3.811-2.558-6.113-5.687-6.113c-3.131,0-5.693,2.305-5.693,6.113c0,3.808,2.563,6.117,5.693,6.117
	C149.742,113.525,152.3,111.217,152.3,107.408z"/>
<path fill="#005EB8" d="M158.223,93.348h2.9v21.987h-2.9V93.348z"/>
<path fill="#005EB8" d="M164.335,93.348h2.901v12.892l7.871-6.739h3.59l-8.406,7.066l8.709,8.752h-3.777l-7.986-8.2v8.2h-2.899
	L164.335,93.348L164.335,93.348z"/>
<path fill="#005EB8" d="M100.488,92.693L63.863,73.555c-0.129-0.072-0.289-0.072-0.418,0L26.82,92.693
	c-0.574,0.291-0.401,1.357,0.207,1.357h73.255C100.854,94.052,101.05,92.984,100.488,92.693 M95.213,92.452H56.341l6.806-3.534
	c0.394-0.271,0.55-0.761,0.384-1.197c-0.064-0.351-0.412-0.584-0.776-0.521c-0.052,0.009-0.104,0.023-0.153,0.044l-10.033,5.206
	h-4.3l14.906-7.695c0.39-0.268,0.551-0.748,0.396-1.184l0,0c-0.144-0.461-0.573-0.687-0.917-0.5l-18.158,9.384h-5.091l23.691-12.095
	c0.396-0.272,0.576-0.754,0.453-1.207c-0.115-0.479-0.505-0.715-0.872-0.549l-27.09,13.852h-3.354c-0.269,0-0.343-0.479-0.091-0.609
	l31.534-16.49l31.643,16.535c0.224,0.119,0.16,0.551-0.081,0.551"/>
</svg>
