<svg version="1.1" xmlns="http://www.w3.org/2000/svg" xmlns:xlink="http://www.w3.org/1999/xlink" x="0px" y="0px" width="67.25px"
	 height="50.005px" viewBox="-7.745 0 67.25 50.005" enable-background="new -7.745 0 67.25 50.005" xml:space="preserve">
	<g id="background">
			<path fill="#FCFCFC" d="M50.18,45.392H1.333c-1.458,0-2.827-0.564-3.865-1.59l-0.134-0.127l-0.059-0.096
				c-0.899-0.937-1.428-2.249-1.428-3.614V11.226c0-1.298,0.486-2.559,1.371-3.559l0.214-0.225c0.98-1.037,2.39-1.643,3.899-1.643
				H50.18c1.51,0,2.92,0.605,3.971,1.704l0.167,0.221c-0.006-0.013-0.025-0.052-0.06-0.095c0.897,0.981,1.405,2.269,1.405,3.597
				l0.001,28.739c0,1.349-0.515,2.644-1.45,3.653l-0.167,0.18C53.009,44.827,51.639,45.392,50.18,45.392z"/>
	</g>
	<g id="icon">
		<linearGradient id="SVGID_1_" gradientUnits="userSpaceOnUse" x1="6.9517" y1="4.1709" x2="47.7242" y2="50.6466">
			<stop  offset="0" style="stop-color:#0075B8"/>
			<stop  offset="0.2478" style="stop-color:#0168B6"/>
			<stop  offset="0.5369" style="stop-color:#015DB5"/>
			<stop  offset="0.7287" style="stop-color:#0157B4"/>
			<stop  offset="0.9821" style="stop-color:#0146B2"/>
			<stop  offset="1" style="stop-color:#0145B2"/>
		</linearGradient>
		<path fill="url(#SVGID_1_)" d="M51.105,46.142H0.407c-1.513,0-2.934-0.585-4.012-1.65l-0.139-0.132l-0.061-0.1
			c-0.934-0.972-1.482-2.333-1.482-3.751V10.682c0-1.347,0.505-2.656,1.423-3.694l0.222-0.234c1.017-1.076,2.481-1.705,4.047-1.705
			h50.699c1.567,0,3.031,0.628,4.121,1.769L55.4,7.047c-0.006-0.014-0.026-0.054-0.062-0.099c0.931,1.019,1.458,2.354,1.458,3.733
			l0.001,29.828c0,1.4-0.534,2.744-1.505,3.792l-0.173,0.187C54.042,45.555,52.62,46.142,51.105,46.142z M0.125,42.894
			c0.094,0.012,0.188,0.018,0.281,0.018h50.698c0.093,0,0.187-0.006,0.281-0.018L34.62,26.135l-7.822,6.486
			c-0.585,0.485-1.502,0.484-2.086,0l-7.821-6.485L0.125,42.894z M37.126,24.059l16.417,16.411V10.682
			c0-0.075-0.004-0.151-0.012-0.227L37.126,24.059z M-2.021,10.455c-0.008,0.076-0.012,0.151-0.012,0.227v29.787l16.417-16.41
			L-2.021,10.455z M0.424,8.278l25.331,21.001L51.087,8.278H0.424z"/>
	</g>
</svg>
